:SAMPLES-PER-SECOND 30
:FULLY-SPECIFIED
:DEGREES
922
root  45.0536 35.8747 30.8849 179.924 2.05884 174.609
RightUpLeg  -25.8207 -23.1357 -20.6663
RightLeg  37.4355 4.60403 3.50223
RightFoot  -4.34612 -0.52552 8.12983
RightToes  1.33877e-009 0 -3.6325e-017
Spine  21.1766 -2.38214 6.75922
Spine1  8.0353 -0.400622 -3.07142
HEad  -22.086 -14.0136 -0.290018
LeftShoulder1  -0.150119 3.96037 -26.6541
LeftArm  -23.6196 13.6686 -37.4252
LeftForeArm  79.0838 -78.9565 -97.9602
LeftHand  -0.0706989 -0.349643 1.48666
RightShoulder  -0.308938 -4.54618 22.5126
RightArm  -9.97563 6.85519 39.418
RightForeArm  111.336 73.3905 137.997
RightHand  -0.114185 -0.826732 -2.80658
LeftUpLeg  -7.10154 6.66341 22.8757
LeftLeg  19.3694 5.4387 2.45594
LeftFoot  6.95057 1.09722 -7.43748
LeftToes  -1.45701e-009 4.75788e-011 -4.21586e-011
923
root  46.2557 36.0616 30.7446 -179.463 2.07487 174.343
RightUpLeg  -26.7998 -23.3487 -18.6595
RightLeg  38.7598 4.24806 3.38
RightFoot  -5.85691 -0.360226 6.70286
RightToes  1.33877e-009 0 -3.6325e-017
Spine  21.4574 -2.75479 7.30734
Spine1  7.81874 -0.672425 -3.15742
HEad  -21.9036 -13.914 0.318571
LeftShoulder1  -0.0598891 3.68691 -26.7036
LeftArm  -24.0159 13.8059 -38.1038
LeftForeArm  74.293 -79.057 -93.0035
LeftHand  -0.0573727 -0.11909 1.26366
RightShoulder  -0.253141 -4.36444 22.1513
RightArm  -9.25944 8.67355 39.9477
RightForeArm  109.118 74.212 135.231
RightHand  -0.130676 -0.369535 -3.02712
LeftUpLeg  -8.72733 3.43052 22.5818
LeftLeg  20.3273 8.52719 3.77055
LeftFoot  12.4986 0.162146 -0.958267
LeftToes  -1.45701e-009 4.75788e-011 -4.21586e-011
924
root  47.1732 36.329 30.5684 -178.943 1.77761 173.903
RightUpLeg  -26.7409 -24.3431 -17.3786
RightLeg  38.586 4.37473 3.46232
RightFoot  -6.75501 -0.276125 5.74662
RightToes  1.33877e-009 0 -3.6325e-017
Spine  21.4374 -3.39683 8.5802
Spine1  7.9144 -0.950671 -3.7958
HEad  -21.8629 -14.2426 0.762233
LeftShoulder1  0.110367 3.16786 -26.8007
LeftArm  -23.9987 13.438 -38.2256
LeftForeArm  70.345 -79.05 -89.34
LeftHand  -0.0817161 0.916635 1.99775
RightShoulder  -0.226877 -4.27348 22.1125
RightArm  -8.87252 9.94007 39.7288
RightForeArm  105.369 74.7644 132.754
RightHand  -0.147169 -1.1026 -3.84954
LeftUpLeg  -11.2596 1.68121 20.9162
LeftLeg  24.1436 3.06767 1.81431
LeftFoot  9.67706 0.339043 -2.15711
LeftToes  -1.45701e-009 4.75788e-011 -4.21586e-011
925
root  47.9824 36.6789 30.3995 -178.676 2.4005 173.776
RightUpLeg  -26.3104 -24.1507 -15.8591
RightLeg  37.3866 4.44518 3.36854
RightFoot  -6.83324 -0.222413 4.48282
RightToes  1.33877e-009 0 -3.6325e-017
Spine  21.9257 -3.18908 9.309
Spine1  7.67345 -0.655226 -3.33282
HEad  -21.7809 -14.4195 0.573254
LeftShoulder1  0.198133 2.8942 -26.26
LeftArm  -23.3042 12.443 -38.9271
LeftForeArm  64.0009 -78.9834 -82.695
LeftHand  -0.0754593 0.802078 1.84869
RightShoulder  -0.245097 -4.34722 21.7634
RightArm  -9.08038 10.2868 39.1326
RightForeArm  103.707 74.984 131.663
RightHand  -0.161886 -0.576545 -3.87218
LeftUpLeg  -13.5524 1.68219 18.5523
LeftLeg  29.4657 0.119321 0.435489
LeftFoot  6.49979 0.398042 -2.77148
LeftToes  -1.45701e-009 4.75788e-011 -4.21586e-011
926
root  48.732 37.1655 30.1804 -178.432 3.00399 173.129
RightUpLeg  -25.1715 -23.7838 -15.0592
RightLeg  34.9655 4.36322 3.01584
RightFoot  -6.26876 -0.200518 3.56219
RightToes  1.33877e-009 0 -3.6325e-017
Spine  22.4228 -3.02442 9.25789
Spine1  7.18123 -0.490319 -3.36254
HEad  -21.8287 -13.8347 0.128249
LeftShoulder1  0.226246 2.8149 -26.6601
LeftArm  -22.5268 12.2012 -38.699
LeftForeArm  64.1326 -78.9969 -82.074
LeftHand  -0.0707985 0.496213 1.72095
RightShoulder  -0.235839 -4.32823 21.2896
RightArm  -9.36682 10.0761 38.781
RightForeArm  102.851 75.1543 130.872
RightHand  -0.160562 -0.0785427 -3.50767
LeftUpLeg  -15.4216 2.11603 14.7024
LeftLeg  33.6529 -0.404233 0.0699729
LeftFoot  3.01265 0.32986 -2.78188
LeftToes  -1.45701e-009 4.75788e-011 -4.21586e-011
927
root  49.4702 37.6585 29.9225 -177.515 3.00962 172.76
RightUpLeg  -24.2779 -24.207 -13.8194
RightLeg  32.0808 4.26138 2.62282
RightFoot  -5.58828 -0.186236 2.9467
RightToes  1.33877e-009 0 -3.6325e-017
Spine  21.4236 -2.72374 9.08708
Spine1  7.33884 -0.394614 -3.24255
HEad  -21.7916 -14.0801 -0.245879
LeftShoulder1  0.21506 2.84616 -26.5014
LeftArm  -21.7626 11.4174 -38.7706
LeftForeArm  62.6505 -78.9549 -80.4099
LeftHand  -0.0684648 1.61544 1.87789
RightShoulder  -0.251905 -4.38679 21.2678
RightArm  -9.83081 9.77993 38.3056
RightForeArm  102.952 75.2935 130.367
RightHand  -0.123715 -0.787822 -3.05346
LeftUpLeg  -17.8963 3.62337 10.647
LeftLeg  36.2478 0.11208 0.451956
LeftFoot  -0.472453 0.304123 -3.15353
LeftToes  -1.45701e-009 4.75788e-011 -4.21586e-011
928
root  50.1712 38.1401 29.6541 -176.937 2.06903 172.347
RightUpLeg  -22.4589 -25.4241 -13.053
RightLeg  28.8661 4.33236 2.34627
RightFoot  -4.88056 -0.165396 2.34575
RightToes  1.33877e-009 0 -3.6325e-017
Spine  20.4633 -2.66384 8.38912
Spine1  7.69791 -0.765132 -2.61559
HEad  -21.6043 -14.0598 -0.761209
LeftShoulder1  0.12524 3.11814 -26.2905
LeftArm  -20.9097 10.2214 -38.7906
LeftForeArm  58.9991 -78.8152 -77.8697
LeftHand  -0.0833502 2.02802 2.48492
RightShoulder  -0.259416 -4.41659 21.1752
RightArm  -10.3537 9.04054 38.208
RightForeArm  103.254 75.0725 131.251
RightHand  -0.118308 -1.16331 -3.11105
LeftUpLeg  -19.6956 4.3238 6.07409
LeftLeg  36.4224 1.56783 1.5971
LeftFoot  -2.73278 0.249635 -3.10588
LeftToes  -1.45701e-009 4.75788e-011 -4.21586e-011
929
root  50.8306 38.5409 29.3934 -176.761 1.07044 172.601
RightUpLeg  -20.393 -26.2627 -11.8267
RightLeg  26.0518 3.91789 1.85379
RightFoot  -4.12649 -0.133416 1.66827
RightToes  1.33877e-009 0 -3.6325e-017
Spine  20.4213 -2.68893 8.19765
Spine1  7.04555 -1.0616 -2.02792
HEad  -21.2056 -14.3355 -1.38801
LeftShoulder1  0.168048 2.98479 -26.0683
LeftArm  -20.4159 10.0822 -38.8588
LeftForeArm  59.2965 -78.8259 -78.4295
LeftHand  -0.119883 1.11715 3.15079
RightShoulder  -0.226634 -4.30143 21.0585
RightArm  -10.5658 7.50466 38.4621
RightForeArm  105.215 74.7047 132.926
RightHand  -0.114932 -1.01924 -2.90231
LeftUpLeg  -20.6678 5.66406 2.29022
LeftLeg  34.8139 2.59517 2.30435
LeftFoot  -4.91068 0.199188 -2.99045
LeftToes  -1.45701e-009 4.75788e-011 -4.21586e-011
930
root  51.4775 38.807 29.1423 -176.686 0.250191 172.913
RightUpLeg  -18.6743 -26.8986 -10.6078
RightLeg  23.9281 3.56648 1.49967
RightFoot  -3.85505 -0.0882432 0.944512
RightToes  1.33877e-009 0 -3.6325e-017
Spine  20.3085 -2.36944 7.74208
Spine1  6.74347 -1.01164 -1.4364
HEad  -21.3275 -15.0358 -1.11195
LeftShoulder1  0.287866 2.62698 -26.6761
LeftArm  -20.2462 9.039 -37.9614
LeftForeArm  60.8443 -78.8923 -78.5909
LeftHand  -0.10124 0.980861 2.52659
RightShoulder  -0.258447 -4.4111 21.2454
RightArm  -11.0388 6.27835 38.5008
RightForeArm  106.123 74.3397 134.301
RightHand  -0.171385 -0.55825 -4.10809
LeftUpLeg  -21.0687 7.23399 -1.19263
LeftLeg  31.6521 2.51064 2.00269
LeftFoot  -6.56971 0.151419 -2.72409
LeftToes  -1.45701e-009 4.75788e-011 -4.21586e-011
931
root  52.0736 38.9565 28.8815 -176.731 -0.352863 173.345
RightUpLeg  -17.3886 -28.2188 -9.34205
RightLeg  22.7704 3.98278 1.6117
RightFoot  -4.06574 -0.0274102 -0.000398499
RightToes  1.33877e-009 0 -3.6325e-017
Spine  20.3768 -2.1057 7.2406
Spine1  6.28691 -0.917557 -1.13844
HEad  -21.3157 -15.8189 -1.03981
LeftShoulder1  0.240958 2.76146 -26.2511
LeftArm  -19.7928 7.76557 -37.6681
LeftForeArm  59.3205 -78.8284 -77.9749
LeftHand  -0.14306 0.760609 3.51579
RightShoulder  -0.236538 -4.32801 21.3679
RightArm  -11.6013 5.11238 38.8356
RightForeArm  107.607 74.1008 135.314
RightHand  -0.167282 0.0868758 -3.57166
LeftUpLeg  -20.8383 6.81777 -4.10901
LeftLeg  27.5019 2.71057 1.87959
LeftFoot  -7.80249 0.168232 -3.95685
LeftToes  -1.45701e-009 4.75788e-011 -4.21586e-011
932
root  52.6328 38.9717 28.6253 -176.937 -0.967413 174.496
RightUpLeg  -16.4317 -28.9435 -7.5136
RightLeg  22.6529 3.95981 1.59081
RightFoot  -4.75939 0.005007 -0.672446
RightToes  1.33877e-009 0 -3.6325e-017
Spine  20.5357 -1.90588 7.12611
Spine1  5.61331 -0.844904 -0.678209
HEad  -21.2931 -16.1331 -0.655876
LeftShoulder1  0.0975714 3.19632 -25.0883
LeftArm  -19.2222 6.45 -38.1455
LeftForeArm  57.3563 -78.7392 -75.9213
LeftHand  -0.112999 0.883077 2.78397
RightShoulder  -0.250475 -4.36134 21.9385
RightArm  -11.761 4.82152 38.9258
RightForeArm  106.743 74.2435 134.717
RightHand  -0.169092 0.0493972 -3.61734
LeftUpLeg  -20.2666 6.13334 -5.48311
LeftLeg  23.3752 0.568924 0.620062
LeftFoot  -8.86678 0.172319 -5.42359
LeftToes  -1.45701e-009 4.75788e-011 -4.21586e-011
933
root  53.1434 38.8487 28.3311 -177.416 -0.993936 175.736
RightUpLeg  -15.9958 -29.5148 -5.76859
RightLeg  24.0362 4.18712 1.81701
RightFoot  -6.05983 0.0294849 -1.50468
RightToes  1.33877e-009 0 -3.6325e-017
Spine  20.3084 -1.34702 6.41996
Spine1  5.7459 -0.673269 0.535207
HEad  -20.9 -16.539 -0.602231
LeftShoulder1  -0.0241951 3.58459 -24.1392
LeftArm  -18.8044 4.90967 -38.1819
LeftForeArm  55.0189 -78.6183 -73.7244
LeftHand  -0.15611 -0.103232 3.35203
RightShoulder  -0.209453 -4.21423 22.0253
RightArm  -12.2619 4.8017 39.5031
RightForeArm  106.383 74.5235 133.747
RightHand  -0.135638 -0.45478 -3.138
LeftUpLeg  -19.1486 6.23048 -6.04766
LeftLeg  19.7033 -2.9269 -0.844559
LeftFoot  -8.45394 0.203423 -5.86845
LeftToes  -1.45701e-009 4.75788e-011 -4.21586e-011
